#tb 0: 1/1000
0,          0,          0,        0,   152064, a2e5c820fd9733e18f9349fb658ca281
0,         33,         33,        0,   152064, aa20a75be3a316193496706c9f760d08
0,         66,         66,        0,   152064, 95567be97a64d3c9efe45f2524116a2e
0,        100,        100,        0,   152064, 219e86cd6b3cca312856eead21776b1c
0,        133,        133,        0,   152064, 4a67fd359ca362398e97c15eb018a2bb
0,        166,        166,        0,   152064, 9916d4e359274d690827f0eb22547423
0,        200,        200,        0,   152064, a07785b52561150c48f1a8eff89d5d75
0,        233,        233,        0,   152064, a3382a92982953dfa20018e5ac975b51
0,        266,        266,        0,   152064, 911836989ca7b148438aa3ec7fc7e303
0,        300,        300,        0,   152064, 5627b981e3fc9e4401d35d3a5ab25917
